<?xml version="1.0" encoding="iso-8859-1"?>
<!-- Uploaded to: SVG Repo, www.svgrepo.com, Generator: SVG Repo Mixer Tools -->
<svg version="1.1" id="Layer_1" xmlns="http://www.w3.org/2000/svg" xmlns:xlink="http://www.w3.org/1999/xlink" 
	 viewBox="0 0 512 512" xml:space="preserve">
<path style="fill:#415E72;" d="M0,355.2v-324c0.104-5.704,4.696-10.296,10.4-10.4h491.2c5.704,0.104,10.296,4.696,10.4,10.4v324H0z"
	/>
<g>
	<path style="fill:#CFDCE5;" d="M512,355.2v41.6c-0.104,5.704-4.696,10.296-10.4,10.4H10.4c-5.704-0.104-10.296-4.696-10.4-10.4
		v-41.6H512z"/>
	<rect x="146.4" y="480.8" style="fill:#CFDCE5;" width="219.2" height="10.4"/>
</g>
<polygon style="fill:#AAC1CE;" points="328.8,480.8 183.2,480.8 193.6,407.2 318.4,407.2 "/>
<rect x="20.8" y="41.6" style="fill:#FFFFFF;" width="470.4" height="292.8"/>
<polygon style="fill:#8BA0AE;" points="318.4,407.2 193.6,407.2 187.792,448.28 320.272,420.424 "/>
<g>
	<path style="fill:#415E72;" d="M288.336,204l-23.296-4.2c1.92-8.304,6.712-15.672,13.52-20.8c8.6-5.08,18.528-7.44,28.496-6.768
		c8.728-0.48,17.456,0.904,25.6,4.072c4.928,2.112,9.072,5.72,11.832,10.32c2.824,7.312,3.992,15.152,3.424,22.968l-0.272,29.96
		c-0.16,6.312,0.248,12.624,1.232,18.856c0.984,4.52,2.536,8.888,4.616,13.016h-25.424c-0.664-1.704-1.496-4.232-2.464-7.576
		c-0.432-1.52-0.736-2.528-0.912-3.016c-4.056,4.04-8.824,7.296-14.072,9.6c-5.056,2.144-10.504,3.24-16,3.2
		c-8.632,0.48-17.104-2.44-23.608-8.136c-5.704-5.304-8.84-12.816-8.608-20.6c-0.088-5.16,1.272-10.24,3.928-14.664
		c2.624-4.296,6.456-7.72,11.008-9.864c6.536-2.832,13.392-4.832,20.416-5.976c8.488-1.336,16.832-3.44,24.936-6.304v-2.552
		c0.392-3.88-0.944-7.744-3.656-10.552c-4.12-2.552-8.976-3.656-13.792-3.152c-3.752-0.216-7.488,0.72-10.688,2.696
		C291.552,196.968,289.376,200.272,288.336,204z M322.68,224.8c-3.288,1.096-8.496,2.4-15.624,3.92
		c-4.864,0.752-9.576,2.264-13.968,4.48c-3.12,1.952-5.016,5.368-5.024,9.048c-0.032,3.528,1.424,6.904,4,9.312
		c2.736,2.64,6.424,4.056,10.224,3.928c4.792-0.056,9.44-1.656,13.248-4.568c2.928-2.072,5.088-5.064,6.12-8.496
		c0.856-4.112,1.192-8.312,1.008-12.512L322.68,224.8z"/>
	<rect x="405.624" y="92" style="fill:#415E72;" width="39.4" height="8"/>
	<rect x="405.624" y="267.376" style="fill:#415E72;" width="39.4" height="8"/>
	<rect x="421.328" y="96" style="fill:#415E72;" width="8" height="175.376"/>
</g>
<path style="fill:#FFD07D;" d="M115.84,231.904h70.288l15.36,39.944h38.616L169.696,96h-37.528L63.672,271.84h37.664L115.84,231.904
	z M150.504,137.016l24.216,65.24h-48L150.504,137.016z"/>
</svg>